<mxfile host="app.diagrams.net" modified="2021-10-22T07:15:10.766Z" agent="5.0 (Macintosh; Intel Mac OS X 10_15_7) AppleWebKit/537.36 (KHTML, like Gecko) Chrome/94.0.4606.81 Safari/537.36" etag="gdgBKurxALD3I_ahMzdd" version="15.5.1" type="github">
  <diagram id="_ET35noM4v5h6dMI2Qd9" name="Page-1">
    <mxGraphModel dx="2860" dy="2782" grid="1" gridSize="10" guides="1" tooltips="1" connect="1" arrows="1" fold="1" page="1" pageScale="1" pageWidth="850" pageHeight="1100" math="0" shadow="0">
      <root>
        <mxCell id="0" />
        <mxCell id="1" parent="0" />
        <mxCell id="Qm34UQfz5eWeFE5a5S-p-1" value="自然人" style="ellipse;whiteSpace=wrap;html=1;aspect=fixed;fillColor=#f5f5f5;strokeColor=#666666;fontColor=#333333;" vertex="1" parent="1">
          <mxGeometry x="200" y="300" width="80" height="80" as="geometry" />
        </mxCell>
        <mxCell id="Qm34UQfz5eWeFE5a5S-p-2" value="&lt;span&gt;自然人&lt;/span&gt;" style="ellipse;whiteSpace=wrap;html=1;aspect=fixed;fillColor=#f5f5f5;strokeColor=#666666;fontColor=#333333;" vertex="1" parent="1">
          <mxGeometry x="385" y="460" width="80" height="80" as="geometry" />
        </mxCell>
        <mxCell id="Qm34UQfz5eWeFE5a5S-p-3" value="&lt;span&gt;自然人&lt;/span&gt;" style="ellipse;whiteSpace=wrap;html=1;aspect=fixed;fillColor=#f5f5f5;strokeColor=#666666;fontColor=#333333;" vertex="1" parent="1">
          <mxGeometry x="620" y="460" width="80" height="80" as="geometry" />
        </mxCell>
        <mxCell id="Qm34UQfz5eWeFE5a5S-p-4" value="&lt;span&gt;自然人&lt;/span&gt;" style="ellipse;whiteSpace=wrap;html=1;aspect=fixed;fillColor=#f5f5f5;strokeColor=#666666;fontColor=#333333;" vertex="1" parent="1">
          <mxGeometry x="800" y="300" width="80" height="80" as="geometry" />
        </mxCell>
        <mxCell id="Qm34UQfz5eWeFE5a5S-p-5" value="&lt;span&gt;自然人&lt;/span&gt;" style="ellipse;whiteSpace=wrap;html=1;aspect=fixed;fillColor=#f5f5f5;strokeColor=#666666;fontColor=#333333;" vertex="1" parent="1">
          <mxGeometry x="1070" y="300" width="80" height="80" as="geometry" />
        </mxCell>
        <mxCell id="Qm34UQfz5eWeFE5a5S-p-6" value="&lt;span&gt;自然人&lt;/span&gt;" style="ellipse;whiteSpace=wrap;html=1;aspect=fixed;fillColor=#f5f5f5;strokeColor=#666666;fontColor=#333333;" vertex="1" parent="1">
          <mxGeometry x="990" y="460" width="80" height="80" as="geometry" />
        </mxCell>
        <mxCell id="Qm34UQfz5eWeFE5a5S-p-7" value="" style="endArrow=classic;html=1;rounded=0;entryX=0;entryY=0;entryDx=0;entryDy=0;exitX=1;exitY=1;exitDx=0;exitDy=0;" edge="1" parent="1" target="Qm34UQfz5eWeFE5a5S-p-6">
          <mxGeometry width="50" height="50" relative="1" as="geometry">
            <mxPoint x="868.2842712474621" y="368.28427124746213" as="sourcePoint" />
            <mxPoint x="690" y="410" as="targetPoint" />
          </mxGeometry>
        </mxCell>
        <mxCell id="Qm34UQfz5eWeFE5a5S-p-8" value="父母" style="text;html=1;strokeColor=none;fillColor=none;align=center;verticalAlign=middle;whiteSpace=wrap;rounded=0;" vertex="1" parent="1">
          <mxGeometry x="880" y="400" width="60" height="30" as="geometry" />
        </mxCell>
        <mxCell id="Qm34UQfz5eWeFE5a5S-p-9" value="" style="endArrow=classic;html=1;rounded=0;exitX=0;exitY=1;exitDx=0;exitDy=0;startArrow=none;" edge="1" parent="1" source="Qm34UQfz5eWeFE5a5S-p-4" target="Qm34UQfz5eWeFE5a5S-p-3">
          <mxGeometry width="50" height="50" relative="1" as="geometry">
            <mxPoint x="1148.2842712474621" y="378.28427124746213" as="sourcePoint" />
            <mxPoint x="1281.7157287525379" y="481.71572875253787" as="targetPoint" />
          </mxGeometry>
        </mxCell>
        <mxCell id="Qm34UQfz5eWeFE5a5S-p-10" value="父母" style="text;html=1;strokeColor=none;fillColor=none;align=center;verticalAlign=middle;whiteSpace=wrap;rounded=0;" vertex="1" parent="1">
          <mxGeometry x="720" y="400" width="60" height="30" as="geometry" />
        </mxCell>
        <mxCell id="Qm34UQfz5eWeFE5a5S-p-13" value="" style="endArrow=classic;html=1;rounded=0;entryX=0;entryY=0.5;entryDx=0;entryDy=0;exitX=1;exitY=0.5;exitDx=0;exitDy=0;" edge="1" parent="1" source="Qm34UQfz5eWeFE5a5S-p-4" target="Qm34UQfz5eWeFE5a5S-p-5">
          <mxGeometry width="50" height="50" relative="1" as="geometry">
            <mxPoint x="878.2842712474621" y="378.28427124746213" as="sourcePoint" />
            <mxPoint x="1011.7157287525379" y="481.71572875253787" as="targetPoint" />
          </mxGeometry>
        </mxCell>
        <mxCell id="Qm34UQfz5eWeFE5a5S-p-14" value="配偶" style="edgeLabel;html=1;align=center;verticalAlign=middle;resizable=0;points=[];" vertex="1" connectable="0" parent="Qm34UQfz5eWeFE5a5S-p-13">
          <mxGeometry x="-0.0316" y="-2" relative="1" as="geometry">
            <mxPoint as="offset" />
          </mxGeometry>
        </mxCell>
        <mxCell id="Qm34UQfz5eWeFE5a5S-p-15" value="配偶" style="endArrow=classic;html=1;rounded=0;exitX=1;exitY=0.5;exitDx=0;exitDy=0;" edge="1" parent="1" source="Qm34UQfz5eWeFE5a5S-p-2" target="Qm34UQfz5eWeFE5a5S-p-3">
          <mxGeometry width="50" height="50" relative="1" as="geometry">
            <mxPoint x="520" y="460" as="sourcePoint" />
            <mxPoint x="570" y="410" as="targetPoint" />
          </mxGeometry>
        </mxCell>
        <mxCell id="Qm34UQfz5eWeFE5a5S-p-16" value="父母" style="endArrow=classic;html=1;rounded=0;exitX=1;exitY=1;exitDx=0;exitDy=0;startArrow=none;" edge="1" parent="1" source="Qm34UQfz5eWeFE5a5S-p-1" target="Qm34UQfz5eWeFE5a5S-p-2">
          <mxGeometry width="50" height="50" relative="1" as="geometry">
            <mxPoint x="821.7157287525379" y="378.28427124746213" as="sourcePoint" />
            <mxPoint x="700.2143552289235" y="483.7875461259009" as="targetPoint" />
          </mxGeometry>
        </mxCell>
        <mxCell id="Qm34UQfz5eWeFE5a5S-p-17" value="被保人" style="ellipse;whiteSpace=wrap;html=1;aspect=fixed;fillColor=#dae8fc;strokeColor=#6c8ebf;" vertex="1" parent="1">
          <mxGeometry x="20" y="300" width="80" height="80" as="geometry" />
        </mxCell>
        <mxCell id="Qm34UQfz5eWeFE5a5S-p-18" value="" style="endArrow=classic;html=1;rounded=0;entryX=1;entryY=0.5;entryDx=0;entryDy=0;exitX=0;exitY=0.5;exitDx=0;exitDy=0;" edge="1" parent="1" source="Qm34UQfz5eWeFE5a5S-p-1" target="Qm34UQfz5eWeFE5a5S-p-17">
          <mxGeometry width="50" height="50" relative="1" as="geometry">
            <mxPoint x="170" y="460" as="sourcePoint" />
            <mxPoint x="220" y="410" as="targetPoint" />
          </mxGeometry>
        </mxCell>
        <mxCell id="Qm34UQfz5eWeFE5a5S-p-19" value="保单" style="ellipse;whiteSpace=wrap;html=1;aspect=fixed;fillColor=#FCAEB6;strokeColor=#6c8ebf;" vertex="1" parent="1">
          <mxGeometry x="-150" y="300" width="80" height="80" as="geometry" />
        </mxCell>
        <mxCell id="Qm34UQfz5eWeFE5a5S-p-20" value="" style="endArrow=classic;html=1;rounded=0;entryX=1;entryY=0.5;entryDx=0;entryDy=0;exitX=0;exitY=0.5;exitDx=0;exitDy=0;" edge="1" parent="1" source="Qm34UQfz5eWeFE5a5S-p-17" target="Qm34UQfz5eWeFE5a5S-p-19">
          <mxGeometry width="50" height="50" relative="1" as="geometry">
            <mxPoint x="210" y="350" as="sourcePoint" />
            <mxPoint x="110" y="350" as="targetPoint" />
          </mxGeometry>
        </mxCell>
        <mxCell id="Qm34UQfz5eWeFE5a5S-p-21" value="代理人" style="ellipse;whiteSpace=wrap;html=1;aspect=fixed;fillColor=#fff2cc;strokeColor=#d6b656;strokeWidth=5;" vertex="1" parent="1">
          <mxGeometry x="-310" y="300" width="80" height="80" as="geometry" />
        </mxCell>
        <mxCell id="Qm34UQfz5eWeFE5a5S-p-22" value="" style="endArrow=classic;html=1;rounded=0;entryX=0;entryY=0.5;entryDx=0;entryDy=0;" edge="1" parent="1" source="Qm34UQfz5eWeFE5a5S-p-21" target="Qm34UQfz5eWeFE5a5S-p-19">
          <mxGeometry width="50" height="50" relative="1" as="geometry">
            <mxPoint x="30" y="350" as="sourcePoint" />
            <mxPoint x="-60" y="350" as="targetPoint" />
          </mxGeometry>
        </mxCell>
        <mxCell id="Qm34UQfz5eWeFE5a5S-p-23" value="代理人" style="ellipse;whiteSpace=wrap;html=1;aspect=fixed;fillColor=#E6E6E6;strokeColor=#d6b656;strokeWidth=5;" vertex="1" parent="1">
          <mxGeometry x="385" y="680" width="80" height="80" as="geometry" />
        </mxCell>
        <mxCell id="Qm34UQfz5eWeFE5a5S-p-24" value="" style="endArrow=classic;html=1;rounded=0;exitX=0.5;exitY=1;exitDx=0;exitDy=0;" edge="1" parent="1" source="Qm34UQfz5eWeFE5a5S-p-2" target="Qm34UQfz5eWeFE5a5S-p-23">
          <mxGeometry width="50" height="50" relative="1" as="geometry">
            <mxPoint x="210" y="350" as="sourcePoint" />
            <mxPoint x="110" y="350" as="targetPoint" />
          </mxGeometry>
        </mxCell>
        <mxCell id="Qm34UQfz5eWeFE5a5S-p-25" value="被保人" style="ellipse;whiteSpace=wrap;html=1;aspect=fixed;fillColor=#dae8fc;strokeColor=#6c8ebf;" vertex="1" parent="1">
          <mxGeometry x="240" y="590" width="80" height="80" as="geometry" />
        </mxCell>
        <mxCell id="Qm34UQfz5eWeFE5a5S-p-26" value="" style="endArrow=classic;html=1;rounded=0;entryX=1;entryY=0.5;entryDx=0;entryDy=0;exitX=0;exitY=1;exitDx=0;exitDy=0;" edge="1" parent="1" target="Qm34UQfz5eWeFE5a5S-p-25" source="Qm34UQfz5eWeFE5a5S-p-2">
          <mxGeometry width="50" height="50" relative="1" as="geometry">
            <mxPoint x="385" y="630" as="sourcePoint" />
            <mxPoint x="405" y="700" as="targetPoint" />
          </mxGeometry>
        </mxCell>
        <mxCell id="Qm34UQfz5eWeFE5a5S-p-27" value="保单" style="ellipse;whiteSpace=wrap;html=1;aspect=fixed;fillColor=#FCAEB6;strokeColor=#6c8ebf;" vertex="1" parent="1">
          <mxGeometry x="70" y="590" width="80" height="80" as="geometry" />
        </mxCell>
        <mxCell id="Qm34UQfz5eWeFE5a5S-p-28" value="" style="endArrow=classic;html=1;rounded=0;entryX=1;entryY=0.5;entryDx=0;entryDy=0;exitX=0;exitY=0.5;exitDx=0;exitDy=0;" edge="1" parent="1" source="Qm34UQfz5eWeFE5a5S-p-25" target="Qm34UQfz5eWeFE5a5S-p-27">
          <mxGeometry width="50" height="50" relative="1" as="geometry">
            <mxPoint x="430" y="640" as="sourcePoint" />
            <mxPoint x="330" y="640" as="targetPoint" />
          </mxGeometry>
        </mxCell>
        <mxCell id="Qm34UQfz5eWeFE5a5S-p-29" value="代理人" style="ellipse;whiteSpace=wrap;html=1;aspect=fixed;fillColor=#fff2cc;strokeColor=#d6b656;strokeWidth=5;" vertex="1" parent="1">
          <mxGeometry x="-90" y="590" width="80" height="80" as="geometry" />
        </mxCell>
        <mxCell id="Qm34UQfz5eWeFE5a5S-p-30" value="" style="endArrow=classic;html=1;rounded=0;entryX=0;entryY=0.5;entryDx=0;entryDy=0;" edge="1" parent="1" source="Qm34UQfz5eWeFE5a5S-p-29" target="Qm34UQfz5eWeFE5a5S-p-27">
          <mxGeometry width="50" height="50" relative="1" as="geometry">
            <mxPoint x="250" y="640" as="sourcePoint" />
            <mxPoint x="160" y="640" as="targetPoint" />
          </mxGeometry>
        </mxCell>
        <mxCell id="Qm34UQfz5eWeFE5a5S-p-31" value="被保人" style="ellipse;whiteSpace=wrap;html=1;aspect=fixed;fillColor=#dae8fc;strokeColor=#6c8ebf;" vertex="1" parent="1">
          <mxGeometry x="620" y="750" width="80" height="80" as="geometry" />
        </mxCell>
        <mxCell id="Qm34UQfz5eWeFE5a5S-p-32" value="保单" style="ellipse;whiteSpace=wrap;html=1;aspect=fixed;fillColor=#FCAEB6;strokeColor=#6c8ebf;" vertex="1" parent="1">
          <mxGeometry x="620" y="870" width="80" height="80" as="geometry" />
        </mxCell>
        <mxCell id="Qm34UQfz5eWeFE5a5S-p-33" value="" style="endArrow=classic;html=1;rounded=0;entryX=0.5;entryY=0;entryDx=0;entryDy=0;exitX=0.5;exitY=1;exitDx=0;exitDy=0;" edge="1" parent="1" source="Qm34UQfz5eWeFE5a5S-p-31" target="Qm34UQfz5eWeFE5a5S-p-32">
          <mxGeometry width="50" height="50" relative="1" as="geometry">
            <mxPoint x="1240" y="920" as="sourcePoint" />
            <mxPoint x="1140" y="920" as="targetPoint" />
          </mxGeometry>
        </mxCell>
        <mxCell id="Qm34UQfz5eWeFE5a5S-p-34" value="代理人" style="ellipse;whiteSpace=wrap;html=1;aspect=fixed;fillColor=#fff2cc;strokeColor=#d6b656;strokeWidth=5;" vertex="1" parent="1">
          <mxGeometry x="620" y="1000" width="80" height="80" as="geometry" />
        </mxCell>
        <mxCell id="Qm34UQfz5eWeFE5a5S-p-35" value="" style="endArrow=classic;html=1;rounded=0;entryX=0.5;entryY=1;entryDx=0;entryDy=0;" edge="1" parent="1" source="Qm34UQfz5eWeFE5a5S-p-34" target="Qm34UQfz5eWeFE5a5S-p-32">
          <mxGeometry width="50" height="50" relative="1" as="geometry">
            <mxPoint x="1060" y="920" as="sourcePoint" />
            <mxPoint x="970" y="920" as="targetPoint" />
          </mxGeometry>
        </mxCell>
        <mxCell id="Qm34UQfz5eWeFE5a5S-p-36" value="" style="endArrow=classic;html=1;rounded=0;exitX=0.5;exitY=1;exitDx=0;exitDy=0;entryX=0.5;entryY=0;entryDx=0;entryDy=0;" edge="1" parent="1" source="Qm34UQfz5eWeFE5a5S-p-3" target="Qm34UQfz5eWeFE5a5S-p-39">
          <mxGeometry width="50" height="50" relative="1" as="geometry">
            <mxPoint x="406.7157287525383" y="538.2842712474617" as="sourcePoint" />
            <mxPoint x="660" y="600" as="targetPoint" />
          </mxGeometry>
        </mxCell>
        <mxCell id="Qm34UQfz5eWeFE5a5S-p-40" value="父母" style="edgeLabel;html=1;align=center;verticalAlign=middle;resizable=0;points=[];" vertex="1" connectable="0" parent="Qm34UQfz5eWeFE5a5S-p-36">
          <mxGeometry x="-0.1762" y="1" relative="1" as="geometry">
            <mxPoint as="offset" />
          </mxGeometry>
        </mxCell>
        <mxCell id="Qm34UQfz5eWeFE5a5S-p-37" value="代理人" style="ellipse;whiteSpace=wrap;html=1;aspect=fixed;fillColor=#E6E6E6;strokeColor=#d6b656;strokeWidth=5;" vertex="1" parent="1">
          <mxGeometry x="800" y="480" width="80" height="80" as="geometry" />
        </mxCell>
        <mxCell id="Qm34UQfz5eWeFE5a5S-p-38" value="" style="endArrow=classic;html=1;rounded=0;entryX=0.5;entryY=0;entryDx=0;entryDy=0;exitX=0.5;exitY=1;exitDx=0;exitDy=0;" edge="1" parent="1" target="Qm34UQfz5eWeFE5a5S-p-37" source="Qm34UQfz5eWeFE5a5S-p-4">
          <mxGeometry width="50" height="50" relative="1" as="geometry">
            <mxPoint x="853.28" y="400.0000000000002" as="sourcePoint" />
            <mxPoint x="450" y="301.72" as="targetPoint" />
          </mxGeometry>
        </mxCell>
        <mxCell id="Qm34UQfz5eWeFE5a5S-p-39" value="&lt;span&gt;自然人&lt;/span&gt;" style="ellipse;whiteSpace=wrap;html=1;aspect=fixed;fillColor=#f5f5f5;strokeColor=#666666;fontColor=#333333;" vertex="1" parent="1">
          <mxGeometry x="620" y="600" width="80" height="80" as="geometry" />
        </mxCell>
        <mxCell id="Qm34UQfz5eWeFE5a5S-p-41" value="" style="endArrow=classic;html=1;rounded=0;exitX=0.5;exitY=1;exitDx=0;exitDy=0;entryX=0.5;entryY=0;entryDx=0;entryDy=0;" edge="1" parent="1" source="Qm34UQfz5eWeFE5a5S-p-39" target="Qm34UQfz5eWeFE5a5S-p-31">
          <mxGeometry width="50" height="50" relative="1" as="geometry">
            <mxPoint x="435" y="549.9999999999998" as="sourcePoint" />
            <mxPoint x="435" y="689.9999999999998" as="targetPoint" />
          </mxGeometry>
        </mxCell>
        <mxCell id="Qm34UQfz5eWeFE5a5S-p-42" value="代理人" style="ellipse;whiteSpace=wrap;html=1;aspect=fixed;fillColor=#E6E6E6;strokeColor=#d6b656;strokeWidth=5;" vertex="1" parent="1">
          <mxGeometry x="620" y="280" width="80" height="80" as="geometry" />
        </mxCell>
        <mxCell id="Qm34UQfz5eWeFE5a5S-p-44" value="" style="endArrow=classic;html=1;rounded=0;exitX=0.5;exitY=0;exitDx=0;exitDy=0;entryX=0.5;entryY=1;entryDx=0;entryDy=0;" edge="1" parent="1" source="Qm34UQfz5eWeFE5a5S-p-3" target="Qm34UQfz5eWeFE5a5S-p-42">
          <mxGeometry width="50" height="50" relative="1" as="geometry">
            <mxPoint x="435" y="549.9999999999998" as="sourcePoint" />
            <mxPoint x="435" y="689.9999999999998" as="targetPoint" />
          </mxGeometry>
        </mxCell>
        <mxCell id="Qm34UQfz5eWeFE5a5S-p-45" value="被保人" style="ellipse;whiteSpace=wrap;html=1;aspect=fixed;fillColor=#dae8fc;strokeColor=#6c8ebf;" vertex="1" parent="1">
          <mxGeometry x="465" y="280" width="80" height="80" as="geometry" />
        </mxCell>
        <mxCell id="Qm34UQfz5eWeFE5a5S-p-46" value="保单" style="ellipse;whiteSpace=wrap;html=1;aspect=fixed;fillColor=#FCAEB6;strokeColor=#6c8ebf;" vertex="1" parent="1">
          <mxGeometry x="360" y="160" width="80" height="80" as="geometry" />
        </mxCell>
        <mxCell id="Qm34UQfz5eWeFE5a5S-p-47" value="" style="endArrow=classic;html=1;rounded=0;entryX=1;entryY=1;entryDx=0;entryDy=0;exitX=0;exitY=0;exitDx=0;exitDy=0;" edge="1" parent="1" source="Qm34UQfz5eWeFE5a5S-p-3" target="Qm34UQfz5eWeFE5a5S-p-45">
          <mxGeometry width="50" height="50" relative="1" as="geometry">
            <mxPoint x="860" y="100" as="sourcePoint" />
            <mxPoint x="760" y="100" as="targetPoint" />
          </mxGeometry>
        </mxCell>
        <mxCell id="Qm34UQfz5eWeFE5a5S-p-48" value="代理人" style="ellipse;whiteSpace=wrap;html=1;aspect=fixed;fillColor=#fff2cc;strokeColor=#d6b656;strokeWidth=5;" vertex="1" parent="1">
          <mxGeometry x="260" y="50" width="80" height="80" as="geometry" />
        </mxCell>
        <mxCell id="Qm34UQfz5eWeFE5a5S-p-49" value="" style="endArrow=classic;html=1;rounded=0;entryX=0;entryY=0;entryDx=0;entryDy=0;" edge="1" parent="1" source="Qm34UQfz5eWeFE5a5S-p-48" target="Qm34UQfz5eWeFE5a5S-p-46">
          <mxGeometry width="50" height="50" relative="1" as="geometry">
            <mxPoint x="680" y="100" as="sourcePoint" />
            <mxPoint x="590" y="100" as="targetPoint" />
          </mxGeometry>
        </mxCell>
        <mxCell id="Qm34UQfz5eWeFE5a5S-p-55" value="" style="endArrow=classic;html=1;rounded=0;exitX=0;exitY=0;exitDx=0;exitDy=0;" edge="1" parent="1" source="Qm34UQfz5eWeFE5a5S-p-45" target="Qm34UQfz5eWeFE5a5S-p-46">
          <mxGeometry width="50" height="50" relative="1" as="geometry">
            <mxPoint x="336.37751273234517" y="130.07036451487352" as="sourcePoint" />
            <mxPoint x="430" y="220" as="targetPoint" />
          </mxGeometry>
        </mxCell>
        <mxCell id="Qm34UQfz5eWeFE5a5S-p-56" value="保单" style="ellipse;whiteSpace=wrap;html=1;aspect=fixed;fillColor=#FCAEB6;strokeColor=#6c8ebf;" vertex="1" parent="1">
          <mxGeometry x="530" y="160" width="80" height="80" as="geometry" />
        </mxCell>
        <mxCell id="Qm34UQfz5eWeFE5a5S-p-57" value="" style="endArrow=classic;html=1;rounded=0;exitX=0.738;exitY=0.005;exitDx=0;exitDy=0;exitPerimeter=0;" edge="1" parent="1" target="Qm34UQfz5eWeFE5a5S-p-56" source="Qm34UQfz5eWeFE5a5S-p-45">
          <mxGeometry width="50" height="50" relative="1" as="geometry">
            <mxPoint x="639.9957287525383" y="291.7157287525383" as="sourcePoint" />
            <mxPoint x="593.28" y="220" as="targetPoint" />
          </mxGeometry>
        </mxCell>
        <mxCell id="Qm34UQfz5eWeFE5a5S-p-58" value="" style="endArrow=classic;html=1;rounded=0;entryX=1;entryY=1;entryDx=0;entryDy=0;exitX=0;exitY=0;exitDx=0;exitDy=0;" edge="1" parent="1" source="Qm34UQfz5eWeFE5a5S-p-42" target="Qm34UQfz5eWeFE5a5S-p-56">
          <mxGeometry width="50" height="50" relative="1" as="geometry">
            <mxPoint x="650" y="470" as="sourcePoint" />
            <mxPoint x="700" y="420" as="targetPoint" />
          </mxGeometry>
        </mxCell>
        <mxCell id="Qm34UQfz5eWeFE5a5S-p-59" value="保单" style="ellipse;whiteSpace=wrap;html=1;aspect=fixed;fillColor=#FCAEB6;strokeColor=#6c8ebf;" vertex="1" parent="1">
          <mxGeometry x="690" y="50" width="80" height="80" as="geometry" />
        </mxCell>
        <mxCell id="Qm34UQfz5eWeFE5a5S-p-60" value="" style="endArrow=classic;html=1;rounded=0;exitX=0;exitY=0;exitDx=0;exitDy=0;" edge="1" parent="1" target="Qm34UQfz5eWeFE5a5S-p-59" source="Qm34UQfz5eWeFE5a5S-p-61">
          <mxGeometry width="50" height="50" relative="1" as="geometry">
            <mxPoint x="756.7157287525383" y="181.71572875253833" as="sourcePoint" />
            <mxPoint x="710" y="110" as="targetPoint" />
          </mxGeometry>
        </mxCell>
        <mxCell id="Qm34UQfz5eWeFE5a5S-p-61" value="被保人" style="ellipse;whiteSpace=wrap;html=1;aspect=fixed;fillColor=#dae8fc;strokeColor=#6c8ebf;" vertex="1" parent="1">
          <mxGeometry x="800" y="160" width="80" height="80" as="geometry" />
        </mxCell>
        <mxCell id="Qm34UQfz5eWeFE5a5S-p-62" value="" style="endArrow=classic;html=1;rounded=0;exitX=0.5;exitY=0;exitDx=0;exitDy=0;entryX=0.5;entryY=1;entryDx=0;entryDy=0;" edge="1" parent="1" source="Qm34UQfz5eWeFE5a5S-p-4" target="Qm34UQfz5eWeFE5a5S-p-61">
          <mxGeometry width="50" height="50" relative="1" as="geometry">
            <mxPoint x="766.7157287525383" y="191.71572875253833" as="sourcePoint" />
            <mxPoint x="715.512558847453" y="130.80761823088687" as="targetPoint" />
          </mxGeometry>
        </mxCell>
        <mxCell id="Qm34UQfz5eWeFE5a5S-p-63" value="保单" style="ellipse;whiteSpace=wrap;html=1;aspect=fixed;fillColor=#FCAEB6;strokeColor=#6c8ebf;" vertex="1" parent="1">
          <mxGeometry x="890" y="50" width="80" height="80" as="geometry" />
        </mxCell>
        <mxCell id="Qm34UQfz5eWeFE5a5S-p-64" value="" style="endArrow=classic;html=1;rounded=0;exitX=1;exitY=0;exitDx=0;exitDy=0;entryX=0;entryY=1;entryDx=0;entryDy=0;" edge="1" parent="1" source="Qm34UQfz5eWeFE5a5S-p-61" target="Qm34UQfz5eWeFE5a5S-p-63">
          <mxGeometry width="50" height="50" relative="1" as="geometry">
            <mxPoint x="821.7157287525379" y="181.71572875253764" as="sourcePoint" />
            <mxPoint x="910" y="110" as="targetPoint" />
          </mxGeometry>
        </mxCell>
        <mxCell id="Qm34UQfz5eWeFE5a5S-p-65" value="代理人" style="ellipse;whiteSpace=wrap;html=1;aspect=fixed;fillColor=#fff2cc;strokeColor=#d6b656;strokeWidth=5;" vertex="1" parent="1">
          <mxGeometry x="568.28" y="-70" width="80" height="80" as="geometry" />
        </mxCell>
        <mxCell id="Qm34UQfz5eWeFE5a5S-p-66" value="" style="endArrow=classic;html=1;rounded=0;entryX=0;entryY=0;entryDx=0;entryDy=0;" edge="1" parent="1" source="Qm34UQfz5eWeFE5a5S-p-65" target="Qm34UQfz5eWeFE5a5S-p-59">
          <mxGeometry width="50" height="50" relative="1" as="geometry">
            <mxPoint x="988.28" y="-20" as="sourcePoint" />
            <mxPoint x="700" y="50" as="targetPoint" />
          </mxGeometry>
        </mxCell>
        <mxCell id="Qm34UQfz5eWeFE5a5S-p-67" value="代理人" style="ellipse;whiteSpace=wrap;html=1;aspect=fixed;fillColor=#fff2cc;strokeColor=#d6b656;strokeWidth=5;" vertex="1" parent="1">
          <mxGeometry x="990" y="-70" width="80" height="80" as="geometry" />
        </mxCell>
        <mxCell id="Qm34UQfz5eWeFE5a5S-p-68" value="" style="endArrow=classic;html=1;rounded=0;entryX=1;entryY=0;entryDx=0;entryDy=0;" edge="1" parent="1" source="Qm34UQfz5eWeFE5a5S-p-67" target="Qm34UQfz5eWeFE5a5S-p-63">
          <mxGeometry width="50" height="50" relative="1" as="geometry">
            <mxPoint x="650" y="230" as="sourcePoint" />
            <mxPoint x="700" y="180" as="targetPoint" />
          </mxGeometry>
        </mxCell>
        <mxCell id="Qm34UQfz5eWeFE5a5S-p-69" value="保单" style="ellipse;whiteSpace=wrap;html=1;aspect=fixed;fillColor=#FCAEB6;strokeColor=#6c8ebf;" vertex="1" parent="1">
          <mxGeometry x="1170" y="160" width="80" height="80" as="geometry" />
        </mxCell>
        <mxCell id="Qm34UQfz5eWeFE5a5S-p-70" value="保单" style="ellipse;whiteSpace=wrap;html=1;aspect=fixed;fillColor=#FCAEB6;strokeColor=#6c8ebf;" vertex="1" parent="1">
          <mxGeometry x="1170" y="420" width="80" height="80" as="geometry" />
        </mxCell>
        <mxCell id="Qm34UQfz5eWeFE5a5S-p-71" value="" style="endArrow=classic;html=1;rounded=0;entryX=0;entryY=1;entryDx=0;entryDy=0;exitX=1;exitY=0;exitDx=0;exitDy=0;" edge="1" parent="1" source="Qm34UQfz5eWeFE5a5S-p-5" target="Qm34UQfz5eWeFE5a5S-p-69">
          <mxGeometry width="50" height="50" relative="1" as="geometry">
            <mxPoint x="650" y="230" as="sourcePoint" />
            <mxPoint x="700" y="180" as="targetPoint" />
          </mxGeometry>
        </mxCell>
        <mxCell id="Qm34UQfz5eWeFE5a5S-p-72" value="" style="endArrow=classic;html=1;rounded=0;entryX=0;entryY=0;entryDx=0;entryDy=0;exitX=1;exitY=1;exitDx=0;exitDy=0;" edge="1" parent="1" source="Qm34UQfz5eWeFE5a5S-p-5" target="Qm34UQfz5eWeFE5a5S-p-70">
          <mxGeometry width="50" height="50" relative="1" as="geometry">
            <mxPoint x="1148.2842712474335" y="321.7157287525665" as="sourcePoint" />
            <mxPoint x="1191.7157287525665" y="238.28427124743348" as="targetPoint" />
          </mxGeometry>
        </mxCell>
        <mxCell id="Qm34UQfz5eWeFE5a5S-p-73" value="代理人" style="ellipse;whiteSpace=wrap;html=1;aspect=fixed;fillColor=#fff2cc;strokeColor=#d6b656;strokeWidth=5;" vertex="1" parent="1">
          <mxGeometry x="1320" y="160" width="80" height="80" as="geometry" />
        </mxCell>
        <mxCell id="Qm34UQfz5eWeFE5a5S-p-74" value="" style="endArrow=classic;html=1;rounded=0;exitX=0;exitY=0.5;exitDx=0;exitDy=0;" edge="1" parent="1" source="Qm34UQfz5eWeFE5a5S-p-73" target="Qm34UQfz5eWeFE5a5S-p-69">
          <mxGeometry width="50" height="50" relative="1" as="geometry">
            <mxPoint x="1015.3742383211015" y="11.520974948989533" as="sourcePoint" />
            <mxPoint x="968.2842712474612" y="71.71572875253833" as="targetPoint" />
          </mxGeometry>
        </mxCell>
        <mxCell id="Qm34UQfz5eWeFE5a5S-p-75" value="" style="endArrow=classic;html=1;rounded=0;entryX=1;entryY=0.5;entryDx=0;entryDy=0;exitX=0;exitY=0.5;exitDx=0;exitDy=0;" edge="1" parent="1" source="Qm34UQfz5eWeFE5a5S-p-76" target="Qm34UQfz5eWeFE5a5S-p-70">
          <mxGeometry width="50" height="50" relative="1" as="geometry">
            <mxPoint x="1330" y="460" as="sourcePoint" />
            <mxPoint x="978.2842712474612" y="81.71572875253833" as="targetPoint" />
          </mxGeometry>
        </mxCell>
        <mxCell id="Qm34UQfz5eWeFE5a5S-p-76" value="代理人" style="ellipse;whiteSpace=wrap;html=1;aspect=fixed;fillColor=#fff2cc;strokeColor=#d6b656;strokeWidth=5;" vertex="1" parent="1">
          <mxGeometry x="1320" y="420" width="80" height="80" as="geometry" />
        </mxCell>
        <mxCell id="Qm34UQfz5eWeFE5a5S-p-77" value="保单" style="ellipse;whiteSpace=wrap;html=1;aspect=fixed;fillColor=#FCAEB6;strokeColor=#6c8ebf;" vertex="1" parent="1">
          <mxGeometry x="1070" y="600" width="80" height="80" as="geometry" />
        </mxCell>
        <mxCell id="Qm34UQfz5eWeFE5a5S-p-78" value="" style="endArrow=classic;html=1;rounded=0;entryX=0;entryY=0;entryDx=0;entryDy=0;exitX=0.675;exitY=0.952;exitDx=0;exitDy=0;exitPerimeter=0;" edge="1" parent="1" source="Qm34UQfz5eWeFE5a5S-p-6" target="Qm34UQfz5eWeFE5a5S-p-77">
          <mxGeometry width="50" height="50" relative="1" as="geometry">
            <mxPoint x="1148.2842712474335" y="378.2842712474335" as="sourcePoint" />
            <mxPoint x="1191.7157287525665" y="441.7157287525665" as="targetPoint" />
          </mxGeometry>
        </mxCell>
        <mxCell id="Qm34UQfz5eWeFE5a5S-p-79" value="代理人" style="ellipse;whiteSpace=wrap;html=1;aspect=fixed;fillColor=#fff2cc;strokeColor=#d6b656;strokeWidth=5;" vertex="1" parent="1">
          <mxGeometry x="1320" y="600" width="80" height="80" as="geometry" />
        </mxCell>
        <mxCell id="Qm34UQfz5eWeFE5a5S-p-80" value="" style="endArrow=classic;html=1;rounded=0;entryX=1;entryY=0.5;entryDx=0;entryDy=0;exitX=0;exitY=0.5;exitDx=0;exitDy=0;" edge="1" parent="1" source="Qm34UQfz5eWeFE5a5S-p-79" target="Qm34UQfz5eWeFE5a5S-p-77">
          <mxGeometry width="50" height="50" relative="1" as="geometry">
            <mxPoint x="1330.00000000002" y="470" as="sourcePoint" />
            <mxPoint x="1259.99999999998" y="470" as="targetPoint" />
          </mxGeometry>
        </mxCell>
      </root>
    </mxGraphModel>
  </diagram>
</mxfile>
